<?xml version="1.0" standalone="no"?>
<!DOCTYPE svg PUBLIC "-//W3C//DTD SVG 20010904//EN"
 "http://www.w3.org/TR/2001/REC-SVG-20010904/DTD/svg10.dtd">
<svg version="1.0" xmlns="http://www.w3.org/2000/svg"
 width="270.000000pt" height="270.000000pt" viewBox="0 0 270.000000 270.000000"
 preserveAspectRatio="xMidYMid meet">
<metadata>
Created by potrace 1.11, written by Peter Selinger 2001-2013
</metadata>
<g transform="translate(0.000000,270.000000) scale(0.100000,-0.100000)"
fill="#000000" stroke="none">
<path d="M2625 2152 c-345 -263 -794 -457 -1310 -568 -38 -9 -79 -17 -90 -20
-49 -10 -365 -64 -414 -69 -30 -4 -63 -9 -75 -11 -11 -2 -48 -6 -81 -9 -33 -3
-71 -8 -85 -10 -14 -2 -61 -6 -105 -10 -44 -4 -93 -8 -110 -11 -16 -2 -73 -6
-125 -10 -52 -3 -113 -7 -135 -9 -22 -2 -49 -4 -60 -4 -20 -1 -20 -7 -20 -198
l1 -198 24 1 c36 2 160 14 195 19 17 3 46 7 65 9 19 3 58 7 85 11 28 3 73 10
100 16 28 5 66 11 85 13 150 18 516 106 760 183 494 155 898 365 1203 625 60
50 83 89 102 168 1 8 12 39 23 68 11 28 19 52 19 52 -1 0 -24 -17 -52 -38z"/>
<path d="M2538 1688 c-97 -128 -242 -282 -357 -378 -29 -25 -65 -55 -80 -68
-110 -94 -341 -239 -542 -342 l-156 -79 -33 -88 c-18 -48 -41 -110 -52 -136
-18 -47 -18 -48 1 -42 18 5 189 99 261 143 19 12 49 29 65 38 53 30 177 115
274 187 226 171 430 381 574 592 35 51 112 233 103 242 -2 2 -28 -29 -58 -69z"/>
<path d="M1920 1390 c-52 -27 -102 -49 -111 -49 -9 -1 -22 -7 -28 -15 -6 -8
-22 -16 -34 -19 -12 -3 -71 -26 -132 -52 -60 -25 -159 -64 -220 -86 -60 -22
-120 -44 -133 -49 -69 -29 -504 -152 -652 -185 -108 -24 -304 -65 -334 -69
-21 -4 -48 -9 -60 -11 -12 -3 -39 -7 -61 -10 -22 -2 -60 -9 -85 -14 -25 -5
-47 -10 -50 -10 -3 -1 -5 -67 -5 -148 l0 -148 35 1 c46 1 76 7 265 48 559 123
1014 292 1479 549 120 67 130 75 149 117 70 162 85 200 79 199 -4 -1 -50 -23
-102 -49z"/>
</g>
</svg>
